ply
format ascii 1.0
element vertex 26
property float x
property float y
property float z
property uchar diffuse_red
property uchar diffuse_green
property uchar diffuse_blue
end_header
-0.421945 0.216417 -0.342842 0 255 0
-0.29685 0.0596991 0.745397 255 0 255
-0.330596 0.126736 0.563079 0 255 0
-0.389431 0.188177 0.378154 255 0 255
-0.412917 0.222812 0.183627 255 0 255
-0.420474 0.210774 -0.00260981 255 0 255
-0.750035 -0.0218171 0.24933 255 0 255
-0.768512 0.0410676 -0.21236 255 0 255
-0.68311 -0.0350193 -0.364225 255 0 255
-0.579787 -0.0221374 -0.58249 255 0 255
-0.465079 0.185717 -0.543392 255 0 255
-0.553395 -4.17951e-009 -0.672597 255 0 255
-0.477017 0.00432211 -0.779758 255 0 255
-0.345402 0.0147949 -0.907057 255 0 255
-0.264965 0.0213247 -0.979322 255 0 255
-0.113674 4.93322e-009 -1.01777 255 0 255
-0.0540106 0.00228528 -1.02346 255 0 255
-0.271982 -0.0424917 0.991756 255 0 255
-0.28716 -0.0800246 1.0674 255 0 255
-1.00971 0.029554 1.17914 255 0 255
-1.02485 0.0184398 1.25418 255 0 255
-0.985177 0.00419309 1.46294 255 0 255
-0.920142 0.0096489 1.60003 255 0 255
-0.772589 -0.00509327 1.69022 255 0 255
-0.527918 -0.00656746 1.87972 255 0 255
-0.452635 2.0746e-008 1.89683 255 0 255
