ply
format ascii 1.0
element vertex 23
property float x
property float y
property float z
property uchar diffuse_red
property uchar diffuse_green
property uchar diffuse_blue
end_header
0.613065 0.00642186 0.351485 0 255 0
0.15617 -0.5172 1.51373 0 255 0
0.218094 -0.501374 1.15013 255 0 255
0.403698 -0.458155 0.496995 255 0 255
0.33682 -0.44541 0.750516 255 0 255
0.363606 6.21366e-009 0.776711 0 255 0
0.350824 0.006162 0.926149 255 0 255
0.404595 -0.00483187 0.636837 0 255 0
0.493134 -1.61087e-008 0.486026 255 0 255
0.326679 -0.000322754 1.1078 255 0 255
0.31495 -0.00419075 1.21932 0 255 0
0.647312 -0.228344 0.232002 255 0 255
0.715366 0.00484281 0.230263 255 0 255
0.183127 -0.117831 1.50432 255 0 255
0.328259 -5.94764e-010 1.37491 0 255 0
0.268845 -0.207337 1.60085 255 0 255
0.326643 -0.00472705 1.54392 0 255 0
0.326363 -0.0099616 1.56786 0 255 0
0.285826 -0.2475 1.79739 255 0 255
0.193959 -0.479356 1.81269 0 255 0
0.297314 -0.265789 1.90811 255 0 255
0.278832 -0.328756 1.91185 255 0 255
0.324186 0.00157845 1.67217 255 0 255
