ply
format ascii 1.0
element vertex 25
property float x
property float y
property float z
property float nx
property float ny
property float nz
property uchar diffuse_red
property uchar diffuse_green
property uchar diffuse_blue
property uchar class
end_header
-2 -2 0.00 -0.218 0.243 0.945 255 0 0 0
-2 -1 0.01 -0.218 0.243 0.945 255 0 0 0
-2  0 0.03 -0.218 0.243 0.945 255 0 0 0
-2  1 0.06 -0.218 0.243 0.945 255 0 0 0
-2  2 0.10 -0.218 0.243 0.945 255 0 0 0
-1 -2 0.00 -0.218 0.243 0.945 255 0 0 0
-1 -1 0.01 -0.218 0.243 0.945 255 0 0 0
-1  0 0.03 -0.218 0.243 0.945 255 0 0 0
-1  1 0.06 -0.218 0.243 0.945 255 0 0 0
-1  2 0.10 -0.218 0.243 0.945 255 0 0 0
0  -2 0.00 -0.218 0.243 0.945 255 0 0 0
0  -1 0.01 -0.218 0.243 0.945 255 0 0 0
0   0 0.03 -0.218 0.243 0.945 255 0 0 0
0   1 0.06 -0.218 0.243 0.945 255 0 0 0
0   2 0.10 -0.218 0.243 0.945 255 0 0 0
1  -2 0.00 -0.218 0.243 0.945 255 0 0 0
1  -1 0.01 -0.218 0.243 0.945 255 0 0 0
1   0 0.03 -0.218 0.243 0.945 255 0 0 0
1   1 0.06 -0.218 0.243 0.945 255 0 0 0
1   2 0.10 -0.218 0.243 0.945 255 0 0 0
2  -2 0.00 -0.218 0.243 0.945 255 0 0 0
2  -1 0.01 -0.218 0.243 0.945 255 0 0 0
2   0 0.03 -0.218 0.243 0.945 255 0 0 0
2   1 0.06 -0.218 0.243 0.945 255 0 0 0
2   2 0.10 -0.218 0.243 0.945 255 0 0 0